<svg xmlns="http://www.w3.org/2000/svg" width="84.753" height="82.845" viewBox="0 0 84.753 82.845"><g transform="translate(-9 -5.94)"><g transform="translate(9 62.267)"><path d="M26.824,713.619v-3.494q-2.661,3.892-8.058,3.89a9.306,9.306,0,0,1-7.265-2.938A10.272,10.272,0,0,1,9,703.932a10.484,10.484,0,0,1,2.54-7.265,9.454,9.454,0,0,1,7.384-2.938q5.319,0,7.9,3.771v-3.692h2.024v19.809H26.824ZM24.8,697.9a7.89,7.89,0,0,0-6.073-2.3,7.294,7.294,0,0,0-5.8,2.461,8.789,8.789,0,0,0-1.945,5.875,8.591,8.591,0,0,0,1.945,5.836,7.257,7.257,0,0,0,5.8,2.382,7.667,7.667,0,0,0,5.895-2.342,8.237,8.237,0,0,0,2.2-5.875A8.623,8.623,0,0,0,24.8,697.9Z" transform="translate(-9 -693.73)" fill="#1d1d1d"/><path d="M306.374,714.3q-5.28,0-7.9-3.811v9.766H296.45V694.177h2.024v3.374q2.62-3.811,7.86-3.81a9.524,9.524,0,0,1,7.384,2.9,10.5,10.5,0,0,1,2.5,7.3,10.961,10.961,0,0,1-2.581,7.542,9.352,9.352,0,0,1-7.265,2.818Zm5.915-16.237a7.058,7.058,0,0,0-5.716-2.461,7.854,7.854,0,0,0-5.895,2.282,8.3,8.3,0,0,0-2.2,6.014,8.939,8.939,0,0,0,1.945,6.153,7.651,7.651,0,0,0,6.113,2.382,7.148,7.148,0,0,0,5.8-2.461,9.093,9.093,0,0,0,1.906-5.994,8.759,8.759,0,0,0-1.945-5.915Z" transform="translate(-272.909 -693.739)" fill="#1d1d1d"/><path d="M556.305,704.616q.4,7.542,7.979,7.542,5.755,0,7.583-4.724h2.064a8.443,8.443,0,0,1-3.93,5.24,11.731,11.731,0,0,1-5.8,1.35q-4.883,0-7.463-2.818a10.3,10.3,0,0,1-2.422-7.265,10.021,10.021,0,0,1,2.759-7.384,9.786,9.786,0,0,1,7.324-2.819,10.264,10.264,0,0,1,7.3,2.561,8.975,8.975,0,0,1,2.739,6.887v1.389l-18.141.04Zm8.1-9.012a8.071,8.071,0,0,0-5.538,1.906,7.788,7.788,0,0,0-2.521,5.24h15.879a7.3,7.3,0,0,0-2.323-5.24,7.923,7.923,0,0,0-5.5-1.906Z" transform="translate(-509.661 -693.739)" fill="#1d1d1d"/><path d="M807.641,718.922l-7.82-8.574-7.781,8.574h-2.62l9.13-10.044-8.3-9.329h2.62l6.947,7.94,7.106-7.94h2.54l-8.3,9.329,9.09,10.044Z" transform="translate(-725.508 -699.073)" fill="#1d1d1d"/></g><g transform="translate(27.737 5.94)"><path d="M387.7,531.821H352.691l-3.111-5.7,35.337-.006Z" transform="translate(-340.425 -483.52)" fill="#1d1d1d"/><path d="M494.575,5.94l18.144,37.142-3.1,5.444L491.67,11.9Z" transform="translate(-470.879 -5.94)" fill="#1d1d1d"/><path d="M237.79,197.406,255.262,161.9l6.438.062-17.56,35.444Z" transform="translate(-237.79 -149.128)" fill="#1d1d1d"/></g></g></svg>