<svg xmlns="http://www.w3.org/2000/svg" width="38.911" height="37.266" viewBox="0 0 38.911 37.266"><g transform="translate(-1394.045 -1121.867)"><path d="M44.416,11.3H22.76a.8.8,0,1,0,0,1.6H44.416a1.614,1.614,0,0,1,1.6,1.6V33.426H11.25V14.494a1.614,1.614,0,0,1,1.6-1.6h3.617a.8.8,0,1,0,0-1.6H12.847A3.148,3.148,0,0,0,9.7,14.447V38.124a3.148,3.148,0,0,0,3.147,3.147H24.686v1.6h-.8a.873.873,0,0,0-.7.423l-1.6,3.147a.725.725,0,0,0,.047.752.75.75,0,0,0,.658.376H34.927a.75.75,0,0,0,.658-.376.85.85,0,0,0,.047-.752l-1.6-3.147a.775.775,0,0,0-.7-.423h-.8v-1.6H42.584a.823.823,0,0,0,.8-.8.783.783,0,0,0-.752-.8H12.847a1.614,1.614,0,0,1-1.6-1.6V34.93H46.013v2.349a.8.8,0,0,0,1.6,0V14.4A3.244,3.244,0,0,0,44.416,11.3ZM33.658,46.063H23.605l.8-1.6H32.86Zm-2.678-4.745v1.6h-4.7v-1.6ZM18.814,12.1a.8.8,0,1,1,.8.8A.792.792,0,0,1,18.814,12.1ZM46.342,39.721a.7.7,0,0,1,.094.611.861.861,0,0,1-.329.47h0a.758.758,0,0,1-.423.141.75.75,0,0,1-.658-.376.9.9,0,0,1-.094-.611,1.216,1.216,0,0,1,.329-.517A.861.861,0,0,1,46.342,39.721Zm-13.389-12.5,4.322-2.49-4.322-2.49a.79.79,0,0,1,.8-1.362L39.3,24.031a.849.849,0,0,1,0,1.409l-5.543,3.147a.565.565,0,0,1-.376.094.828.828,0,0,1-.7-.376A.812.812,0,0,1,32.954,27.225ZM26.847,31.03a.842.842,0,0,1-.564-.987L29.43,19a.8.8,0,1,1,1.55.423l-3.147,11.04a.8.8,0,0,1-.752.564C26.988,31.077,26.894,31.03,26.847,31.03Zm-9.255-6.295a.828.828,0,0,1,.376-.7l5.543-3.147a.79.79,0,0,1,.8,1.362l-4.322,2.49,4.322,2.49a.781.781,0,0,1,.282,1.08.828.828,0,0,1-.7.376.885.885,0,0,1-.376-.094L17.968,25.44A.828.828,0,0,1,17.592,24.735ZM29.43,36.574a.8.8,0,1,1,0,1.6h-1.6a.8.8,0,1,1,0-1.6Z" transform="translate(1384.845 1111.067)" fill="#1d1d1d"/><path d="M12.847,10.8h3.617a1.3,1.3,0,0,1,0,2.6H12.847a1.112,1.112,0,0,0-1.1,1.1V32.926H45.513V14.494a1.112,1.112,0,0,0-1.1-1.1H22.76a1.3,1.3,0,0,1,0-2.6H44.416A3.658,3.658,0,0,1,47,11.878a3.724,3.724,0,0,1,1.111,2.508V37.278a1.3,1.3,0,0,1-2.6,0V35.43H11.75v2.647a1.112,1.112,0,0,0,1.1,1.1H42.631a1.277,1.277,0,0,1,1.252,1.3,1.316,1.316,0,0,1-1.3,1.3H33.031v.6h.3a1.275,1.275,0,0,1,1.152.7L36.1,46.253a1.355,1.355,0,0,1-.082,1.195,1.243,1.243,0,0,1-1.086.619H22.29a1.243,1.243,0,0,1-1.086-.619,1.221,1.221,0,0,1-.057-1.249l1.607-3.165a1.378,1.378,0,0,1,1.133-.666h.3v-.6H12.847A3.652,3.652,0,0,1,9.2,38.124V14.447A3.652,3.652,0,0,1,12.847,10.8Zm3.617,1.6a.3.3,0,1,0,0-.6H12.847A2.65,2.65,0,0,0,10.2,14.447V38.124a2.65,2.65,0,0,0,2.647,2.647H25.186v2.6h-1.3a.379.379,0,0,0-.269.169l-1.6,3.159c-.035.059,0,.164.047.237a.251.251,0,0,0,.229.133H34.927a.251.251,0,0,0,.229-.133.347.347,0,0,0,.018-.292l-1.585-3.124a.285.285,0,0,0-.259-.149h-1.3v-2.6H42.584a.323.323,0,0,0,.3-.3.286.286,0,0,0-.252-.3H12.847a2.125,2.125,0,0,1-2.1-2.1V34.43H46.513v2.849a.3.3,0,0,0,.6,0V14.408A2.747,2.747,0,0,0,44.416,11.8H22.76a.3.3,0,0,0,0,.6H44.416a2.125,2.125,0,0,1,2.1,2.1V33.926H10.75V14.494a2.125,2.125,0,0,1,2.1-2.1Zm3.147-1.6a1.3,1.3,0,0,1,0,2.6,1.285,1.285,0,0,1-1.3-1.3A1.316,1.316,0,0,1,19.612,10.8Zm0,1.6a.3.3,0,1,0-.3-.3A.292.292,0,0,0,19.612,12.4ZM30.231,17.92a1.36,1.36,0,0,1,.295.032l.025.006.024.008a1.345,1.345,0,0,1,.894,1.569l-.007.029L28.314,30.6a1.3,1.3,0,0,1-1.137.923.713.713,0,0,1-.187.025.875.875,0,0,1-.183-.021h-.04l-.077-.026a1.345,1.345,0,0,1-.894-1.569l.007-.029,3.154-11.061A1.346,1.346,0,0,1,30.231,17.92Zm.052,1a.343.343,0,0,0-.376.23l-3.139,11.01a.341.341,0,0,0,.186.371l.009,0h.118a.305.305,0,0,0,.271-.2l3.142-11.022A.342.342,0,0,0,30.283,18.924Zm-6.377,1.345a1.31,1.31,0,0,1,1.11.632,1.235,1.235,0,0,1,.146.99,1.336,1.336,0,0,1-.587.78l-.015.009-3.57,2.057L24.575,26.8a1.336,1.336,0,0,1,.587.78,1.235,1.235,0,0,1-.144.986,1.318,1.318,0,0,1-1.131.614,1.381,1.381,0,0,1-.6-.147l-.023-.012-5.554-3.154a1.348,1.348,0,0,1,0-2.267l.01-.006,5.535-3.143A1.244,1.244,0,0,1,23.906,20.269Zm.145,1.549a.338.338,0,0,0,.146-.191.239.239,0,0,0-.03-.2.322.322,0,0,0-.262-.162.243.243,0,0,0-.13.039l-.018.011-5.536,3.144a.354.354,0,0,0,0,.548l5.522,3.136a.389.389,0,0,0,.143.037.334.334,0,0,0,.276-.133l0-.008a.282.282,0,0,0-.117-.388l-5.065-2.918Zm9.306-1.549a1.244,1.244,0,0,1,.65.185L39.553,23.6a1.348,1.348,0,0,1,0,2.267l-.01.006-5.53,3.14a1.046,1.046,0,0,1-.636.167,1.318,1.318,0,0,1-1.133-.619l-.018-.034a1.425,1.425,0,0,1-.11-.949,1.192,1.192,0,0,1,.6-.795l3.559-2.05L32.689,22.67a1.336,1.336,0,0,1-.587-.78,1.235,1.235,0,0,1,.146-.99A1.31,1.31,0,0,1,33.357,20.269Zm5.684,4.193-5.555-3.154a.287.287,0,0,0-.391.123.239.239,0,0,0-.03.2.338.338,0,0,0,.146.191l5.065,2.918-5.1,2.937a.2.2,0,0,0-.089.137.424.424,0,0,0,.022.253.345.345,0,0,0,.266.119c.03,0,.068,0,.085,0l.014-.008.03-.019,5.536-3.144a.354.354,0,0,0,0-.548ZM27.833,36.074h1.6a1.3,1.3,0,0,1,0,2.6h-1.6a1.3,1.3,0,0,1,0-2.6Zm1.6,1.6a.3.3,0,1,0,0-.6h-1.6a.3.3,0,1,0,0,.6Zm16.2,1.184a1.325,1.325,0,0,1,1.127.59,1.2,1.2,0,0,1,.166.984l-.005.023a1.367,1.367,0,0,1-.537.764,1.241,1.241,0,0,1-1.787-.394l-.018-.034a1.385,1.385,0,0,1-.137-.932l.005-.023a1.7,1.7,0,0,1,.46-.749l.057-.057.073-.036A1.335,1.335,0,0,1,45.633,38.855Zm.316,1.364c.029-.15.012-.172-.007-.2L45.924,40l-.015-.027a.34.34,0,0,0-.276-.114.377.377,0,0,0-.083.009.669.669,0,0,0-.129.2.386.386,0,0,0,.044.256.248.248,0,0,0,.22.119.28.28,0,0,0,.145-.057A.377.377,0,0,0,45.949,40.219Zm-20.166.6h5.7v2.6h-5.7Zm4.7,1h-3.7v.6h3.7Zm-6.386,2.147h9.074l1.3,2.6H22.8Zm8.456,1H24.713l-.3.6h8.435Z" transform="translate(1384.845 1111.067)" fill="#1d1d1d"/></g></svg>