<svg xmlns="http://www.w3.org/2000/svg" width="31.538" height="45.682" viewBox="0 0 31.538 45.682"><path d="M7.786,42.509,3.4,38.371a10.464,10.464,0,0,1-2.188-12.6A9.1,9.1,0,0,0,2.47,19.823c-.337-1.76-.281-3.486,1.117-4.807a4.638,4.638,0,0,1,7.575,2.141c.173.694.251,1.428.373,2.133L24.178,7.232A4.365,4.365,0,1,1,30.2,13.549L23.541,19.9a4.133,4.133,0,0,1,1.967,4.723,4.481,4.481,0,0,1,2.444,5.759,4.373,4.373,0,0,1,2.632,3.969,4.247,4.247,0,0,1-1.355,3.112l-2.74,2.587L24.346,37.78l2.74-2.588a1.186,1.186,0,0,0-.021-1.716,1.287,1.287,0,0,0-1.722-.018A1.562,1.562,0,0,1,23.2,31.188h0l1.435-1.354A1.448,1.448,0,0,0,25,28.117a1.313,1.313,0,0,0-1.978-.361,1.562,1.562,0,0,1-2.145-2.271l.005,0,1.31-1.238a.97.97,0,0,0,.1-1.39,1.289,1.289,0,0,0-1.777-.073,1.562,1.562,0,0,1-2.15-2.266l9.675-9.226a1.241,1.241,0,0,0-1.714-1.8L11.567,23.566A1.586,1.586,0,0,1,8.956,22.7l-.837-4.83a1.505,1.505,0,0,0-2.388-.58c-.519.49-.339,1.421-.178,2.035a12.169,12.169,0,0,1-1.575,7.9A7.372,7.372,0,0,0,5.549,36.1l4.382,4.138a8.782,8.782,0,0,0,9.28,1.657l1.2,2.884a11.877,11.877,0,0,1-12.625-2.27Zm13.227-1.647a8.089,8.089,0,0,0,.672-.57l1.13-1.067L24.961,41.5l-1.13,1.068a11.124,11.124,0,0,1-.932.788ZM2.9,5.435,5.1,3.22l4.827,4.8-2.2,2.215Zm12.44,2.471L20.227,3.02l2.208,2.21-4.892,4.885Zm-4.242-.324L11.147,0,14.27.022,14.218,7.6Z" transform="translate(0)" fill="#1d1d1d"/></svg>