<svg xmlns="http://www.w3.org/2000/svg" width="42.577" height="46.357" viewBox="0 0 42.577 46.357"><path d="M14.513,46.357l9.419-32.468h3.857L18.406,46.357ZM28.624,33.145l9.577-3.43-9.577-3.4v-4.72l13.954,5.424v5.22L28.624,37.911ZM.113,32.237v-5.22l13.954-5.424v4.72l-9.615,3.4,9.615,3.43v4.765ZM7.151,19.3A7.681,7.681,0,0,0,.41,12.572a.467.467,0,0,1,0-.927,7.674,7.674,0,0,0,6.74-6.731.467.467,0,0,1,.927,0,7.693,7.693,0,0,0,6.741,6.731.467.467,0,0,1,0,.927A7.675,7.675,0,0,0,8.078,19.3a.467.467,0,0,1-.927,0ZM33,15.094a2.791,2.791,0,0,0-2.837-2.837v-.3A2.791,2.791,0,0,0,33,9.123h.3a2.791,2.791,0,0,0,2.837,2.837v.3A2.791,2.791,0,0,0,33.3,15.094c-.047,0-.1.009-.149.009A.818.818,0,0,1,33,15.094ZM18.99,10.607a4.965,4.965,0,0,0-5.035-5.044V5.035A4.946,4.946,0,0,0,18.99,0h.528a4.96,4.96,0,0,0,5.035,5.044v.528a4.947,4.947,0,0,0-5.035,5.035Z" fill="#1d1d1d"/></svg>